<?xml version="1.0" encoding="UTF-8"?>
<svg version="1.1" xmlns="http://www.w3.org/2000/svg" width="230" height="225">
    <path d="M0 0 C16.94589553 15.03700072 28.71992557 32.25330194 36.00048828 53.75488281 C36.23920654 54.45895264 36.4779248 55.16302246 36.72387695 55.88842773 C40.15330718 66.58105631 40.98818602 76.93295826 40.93798828 88.12988281 C40.93550079 88.79323639 40.93301331 89.45658997 40.93045044 90.14004517 C40.7688504 118.00870658 31.71057118 144.72559817 12.62548828 165.44238281 C11.87356201 166.26585205 11.87356201 166.26585205 11.10644531 167.10595703 C2.85694831 176.04599489 -5.77115319 183.41084626 -16.37451172 189.44238281 C-17.2889505 190.01316559 -18.20338928 190.58394836 -19.14553833 191.17202759 C-29.46484196 197.07565444 -38.4987014 197.49203625 -50.21044922 197.40722656 C-52.10267948 197.41450482 -53.99490322 197.4237035 -55.88711548 197.43470764 C-59.8325325 197.44944586 -63.77683669 197.43872926 -67.72216797 197.40991211 C-72.73444014 197.37567125 -77.74359149 197.40897405 -82.7556057 197.4621191 C-86.65787855 197.49520514 -90.55942793 197.48995688 -94.46178055 197.47397041 C-96.30744195 197.47118413 -98.15316649 197.48020667 -99.99869919 197.5021801 C-113.12832045 197.63124591 -122.14852322 195.25986473 -133.37451172 188.44238281 C-134.93702164 187.54730263 -134.93702164 187.54730263 -136.53109741 186.63414001 C-144.06725791 182.26294345 -150.14568885 176.45249702 -156.37451172 170.44238281 C-157.10669922 169.77335938 -157.83888672 169.10433594 -158.59326172 168.41503906 C-171.23123464 156.55440178 -179.25618977 140.35323133 -184.74951172 124.12988281 C-184.98822998 123.42581299 -185.22694824 122.72174316 -185.47290039 121.99633789 C-188.90233062 111.30370932 -189.73720946 100.95180736 -189.68701172 89.75488281 C-189.68452423 89.09152924 -189.68203674 88.42817566 -189.67947388 87.74472046 C-189.51784061 59.87032838 -180.4571565 33.16750875 -161.37451172 12.44238281 C-160.90029785 11.92579102 -160.42608398 11.40919922 -159.9375 10.87695312 C-118.69589147 -33.54114235 -46.83414587 -40.27707338 0 0 Z "
          fill="#FEFEFE" transform="translate(189.37451171875,28.5576171875)"/>
    <path d="M0 0 C9.9032975 -0.97091152 18.45716517 3.37805659 26.75 8.4375 C30.37180471 10.48915816 32.4077581 11.42428174 36.5 10.4375 C37.23347656 10.20160156 37.96695313 9.96570312 38.72265625 9.72265625 C51.67894919 5.61131115 68.44546762 7.22668287 81.51806641 10.02050781 C88.28334205 11.44044149 90.90786538 10.20610694 96.6875 6.625 C105.0169314 1.70214431 111.31552071 -0.46116568 121 0 C124.73480885 8.87017101 125.15603815 18.17582954 123.28125 27.62109375 C122.93435649 31.78863385 123.81598739 33.10804779 126.25 36.4375 C132.42762743 45.00193803 133.4868665 51.92099363 133.375 62.25 C133.38660156 63.30574219 133.39820313 64.36148438 133.41015625 65.44921875 C133.3565725 80.04186002 129.35558036 93.24260773 119.21484375 103.96875 C109.23865136 113.1179917 95.37972403 117.69963885 82 118 C82.42152344 118.67546875 82.84304687 119.3509375 83.27734375 120.046875 C84.09912109 121.38492188 84.09912109 121.38492188 84.9375 122.75 C85.48277344 123.63171875 86.02804688 124.5134375 86.58984375 125.421875 C88.60070066 129.0982339 89.11970797 132.24295857 89.20532227 136.40136719 C89.22550415 137.27390137 89.24568604 138.14643555 89.26647949 139.04541016 C89.29119324 140.40738525 89.29119324 140.40738525 89.31640625 141.796875 C89.33505737 142.63814941 89.3537085 143.47942383 89.3729248 144.34619141 C89.44108449 147.48069018 89.50132118 150.6153572 89.5625 153.75 C89.7790625 164.26875 89.7790625 164.26875 90 175 C70.53 175 51.06 175 31 175 C31 166.75 31 158.5 31 150 C30.01 150.33 29.02 150.66 28 151 C15.6920879 151.74928407 6.20793695 151.76026938 -3.57714844 143.46069336 C-5.94517273 141.02968969 -7.12789892 138.19877546 -8.5 135.125 C-12.34714526 126.90915305 -16.92132801 121.5618137 -24 116 C-23.67 114.68 -23.34 113.36 -23 112 C-17.04155151 111.50346263 -12.92575843 112.53156655 -8 116 C-4.31414523 119.51796905 -1.37778785 123.3792768 1.3125 127.6875 C4.72339019 132.57943461 10.26977713 135.32560942 16.07421875 136.375 C21.45415295 136.54960233 26.78521789 135.19683524 32 134 C32.09796875 133.41992188 32.1959375 132.83984375 32.296875 132.2421875 C33.31879515 126.90353568 34.68373256 123.31114768 38 119 C37.11699219 118.82984375 36.23398438 118.6596875 35.32421875 118.484375 C19.99619456 115.38913488 6.07467988 110.70959615 -4 98 C-12.95732243 84.08862774 -15.71980492 66.05716491 -12.58837891 49.87255859 C-10.82202895 43.272167 -7.65255365 37.78109262 -3.0390625 32.78125 C-1.54124189 30.21355753 -2.31710097 28.88073498 -3 26 C-3.21324274 22.87588311 -3.23061568 19.75556702 -3.25 16.625 C-3.270625 15.8 -3.29125 14.975 -3.3125 14.125 C-3.34733872 8.63790196 -2.504991 4.89132454 0 0 Z "
          fill="#010101" transform="translate(55,50)"/>
</svg>
